<?xml version="1.0" encoding="UTF-8" standalone="no"?>
<svg width="184" height="136" viewBox="0 0 184 136" fill="none" xmlns="http://www.w3.org/2000/svg">
  <circle cx="92" cy="68" r="64" fill="#36393f" fill-opacity="0.6"/>
  <path d="M92 48C82.0589 48 74 56.0589 74 66C74 75.9411 82.0589 84 92 84C101.941 84 110 75.9411 110 66C110 56.0589 101.941 48 92 48ZM92 78C85.3726 78 80 72.6274 80 66C80 59.3726 85.3726 54 92 54C98.6274 54 104 59.3726 104 66C104 72.6274 98.6274 78 92 78Z" fill="#72767d"/>
  <path d="M92 88C77.6406 88 66 99.6406 66 114C66 116.209 67.7909 118 70 118H114C116.209 118 118 116.209 118 114C118 99.6406 106.359 88 92 88ZM72.3427 112C73.9331 101.751 82.1337 94 92 94C101.866 94 110.067 101.751 111.657 112H72.3427Z" fill="#72767d"/>
</svg>
