<?xml version="1.0" encoding="UTF-8" standalone="no"?>
<svg width="112" height="112" viewBox="0 0 112 112" fill="none" xmlns="http://www.w3.org/2000/svg">
  <circle cx="56" cy="56" r="56" fill="#5865F2"/>
  <path d="M76.7001 46.6667C73.1001 43.0667 68.3668 41 63.3001 41C58.2334 41 53.5001 43.0667 49.9001 46.6667C46.3001 50.2667 44.2334 55 44.2334 60.0667C44.2334 65.1333 46.3001 69.8667 49.9001 73.4667C53.5001 77.0667 58.2334 79.1333 63.3001 79.1333C68.3668 79.1333 73.1001 77.0667 76.7001 73.4667C80.3001 69.8667 82.3668 65.1333 82.3668 60.0667C82.3668 55 80.3001 50.2667 76.7001 46.6667ZM63.3001 74.4667C54.7001 74.4667 47.7001 67.4667 47.7001 58.8667C47.7001 50.2667 54.7001 43.2667 63.3001 43.2667C71.9001 43.2667 78.9001 50.2667 78.9001 58.8667C78.9001 67.4667 71.9001 74.4667 63.3001 74.4667Z" fill="white"/>
  <path d="M63.3001 48.9333C57.7001 48.9333 53.3668 53.2667 53.3668 58.8667C53.3668 64.4667 57.7001 68.8 63.3001 68.8C68.9001 68.8 73.2334 64.4667 73.2334 58.8667C73.2334 53.2667 68.9001 48.9333 63.3001 48.9333ZM63.3001 64.1333C60.3001 64.1333 58.0334 61.8667 58.0334 58.8667C58.0334 55.8667 60.3001 53.6 63.3001 53.6C66.3001 53.6 68.5668 55.8667 68.5668 58.8667C68.5668 61.8667 66.3001 64.1333 63.3001 64.1333Z" fill="white"/>
</svg>
